Coordinates
version=1
nRows=29
nColumns=22
inDegrees=yes

Units are S.I. units (second, meters, Newtons, ...)
If the header above contains a line with 'inDegrees', this indicates whether rotational values are in degrees (yes) or radians (no).

endheader
time	pelvis_tilt	pelvis_list	pelvis_rotation	pelvis_tx	pelvis_ty	pelvis_tz	hip_flexion_r	hip_adduction_r	hip_rotation_r	knee_angle_r	ankle_angle_r	subtalar_angle_r	hip_flexion_l	hip_adduction_l	hip_rotation_l	knee_angle_l	ankle_angle_l	subtalar_angle_l	lumbar_extension	lumbar_bending	lumbar_rotation
      1.62000000	      1.51763534	     -2.00497143	     39.39298774	      0.93882947	      0.90467748	      0.96413186	     24.12500146	     -0.10507899	      8.34816538	     -5.86551219	      3.28161780	     11.40491252	    -10.51288837	      6.17096673	     13.73821391	    -14.86438501	     19.83906617	    -14.35051586	     -8.27705751	     -5.41985804	    -11.33975544
      1.63000000	      1.58115449	     -1.87642697	     39.91705445	      0.94687171	      0.90241655	      0.95791432	     24.21507854	      0.04833205	      8.07091089	     -5.72399151	      3.31994931	     11.24291415	    -11.51535820	      6.04298792	     14.05639297	    -14.61311654	     20.15378674	    -14.39143524	     -8.38041154	     -5.47780959	    -11.62979056
      1.64000000	      1.68691096	     -1.77272561	     40.40024578	      0.95497035	      0.90015421	      0.95165047	     24.33028596	      0.27795444	      7.98061511	     -5.96110493	      3.27043803	     10.90992811	    -12.48194725	      5.87969689	     14.30006961	    -14.47306641	     20.45774957	    -14.52169533	     -8.50157039	     -5.47472932	    -11.86386910
      1.65000000	      1.71930136	     -1.77971746	     40.91921481	      0.96303045	      0.89770476	      0.94521407	     24.59720374	      0.52951348	      7.98571254	     -6.51844212	      3.18034507	     10.61441772	    -13.21361632	      5.68889436	     14.54378848	    -14.52485015	     20.77330708	    -14.61840775	     -8.46025601	     -5.41048655	    -12.13103295
      1.66000000	      1.74803960	     -1.86705890	     41.41761605	      0.97112942	      0.89524431	      0.93868868	     24.93502177	      0.85222206	      8.17120230	     -7.36548669	      2.93652667	     10.21296919	    -13.81093512	      5.45479716	     14.73957465	    -14.72159489	     21.05701278	    -14.78131178	     -8.34261898	     -5.27188627	    -12.33578156
      1.67000000	      1.76216969	     -2.04957945	     41.88394382	      0.97928275	      0.89280020	      0.93209061	     25.36899507	      1.25310456	      8.52649441	     -8.48305613	      2.51047289	      9.78579587	    -14.24748326	      5.17666262	     14.87184875	    -15.07133362	     21.27767885	    -14.98394272	     -8.12283786	     -5.05956768	    -12.46942896
      1.68000000	      1.77523835	     -2.31611521	     42.30801165	      0.98748521	      0.89045426	      0.92541692	     25.89972513	      1.73627836	      8.99460149	     -9.87250066	      1.93908666	      9.35509720	    -14.55362838	      4.85916129	     14.96405518	    -15.54775515	     21.40484271	    -15.21980636	     -7.82032069	     -4.77374124	    -12.53612531
      1.69000000	      1.85278322	     -2.69705306	     42.68780220	      0.99583350	      0.88832559	      0.91864051	     26.47214726	      2.36897255	      9.51507904	    -11.46489903	      1.18201343	      9.00464817	    -14.77096112	      4.42528710	     14.96838078	    -16.13082758	     21.44136286	    -15.43546517	     -7.45156828	     -4.34053826	    -12.53167939
      1.70000000	      1.91607628	     -3.15445322	     43.01076062	      1.00421420	      0.88636888	      0.91176272	     27.19171114	      3.06506288	      9.97449939	    -13.33612796	      0.45966717	      8.62275556	    -14.84970793	      3.98259085	     14.97680615	    -16.84124641	     21.34936613	    -15.70697293	     -6.99025040	     -3.85079735	    -12.41874427
      1.71000000	      2.12079685	     -3.66611025	     43.28673594	      1.01272185	      0.88486334	      0.90468930	     27.82650533	      3.89440263	     10.34199956	    -15.29376272	     -0.25440098	      8.39073939	    -14.94861576	      3.42315645	     14.88271041	    -17.64576623	     21.11572052	    -15.92150434	     -6.57522081	     -3.19250351	    -12.24834522
      1.72000000	      2.30043442	     -4.22468785	     43.52648585	      1.02124446	      0.88359967	      0.89739561	     28.55400023	      4.71409745	     10.51994899	    -17.39304864	     -0.69709891	      8.21830263	    -14.93253412	      2.89156414	     14.86241425	    -18.55896417	     20.72705962	    -16.15101727	     -6.07274883	     -2.50331503	    -12.00346049
      1.73000000	      2.61862864	     -4.77849232	     43.76023619	      1.02980328	      0.88286669	      0.88978994	     29.08522430	      5.56829740	     10.54338425	    -19.39085055	     -0.94332558	      8.22225008	    -14.96231679	      2.29406275	     14.78870459	    -19.58419829	     20.15450529	    -16.30612511	     -5.66552107	     -1.68578061	    -11.74692888
      1.74000000	      3.04791541	     -5.28033477	     44.01207849	      1.03835428	      0.88268432	      0.88187072	     29.37152156	      6.38790662	     10.41959595	    -21.20407522	     -0.91561219	      8.33959078	    -15.03734843	      1.68194104	     14.69706465	    -20.73212328	     19.30988412	    -16.39506693	     -5.37472573	     -0.80717185	    -11.50956864
      1.75000000	      3.47072432	     -5.82860415	     44.28623560	      1.04684169	      0.88278075	      0.87369129	     29.56157991	      7.16017070	     10.18825565	    -22.78045562	     -0.75190504	      8.65448256	    -14.96107018	      1.06720982	     14.60467925	    -22.04549290	     18.31248580	    -16.27656870	     -5.01825508	      0.12433703	    -11.25478644
      1.76000000	      3.98485739	     -6.29090487	     44.61246392	      1.05523474	      0.88342700	      0.86528277	     29.43015481	      7.85714188	      9.87387463	    -24.03002263	     -0.37537241	      9.02395244	    -14.88939353	      0.45647163	     14.44511595	    -23.52096834	     16.95695925	    -15.92700034	     -4.80540585	      1.06062856	    -11.05019113
      1.77000000	      4.53632137	     -6.70340809	     45.01313026	      1.06344000	      0.88448831	      0.85669763	     29.03970494	      8.46677304	      9.48876693	    -24.92600550	      0.16614936	      9.30539380	    -14.71373260	     -0.14805201	     14.21999168	    -25.20182451	     15.30815363	    -15.49644807	     -4.66947978	      1.99283511	    -10.92545236
      1.78000000	      5.05994207	     -7.01894504	     45.44401290	      1.07144964	      0.88589780	      0.84805648	     28.46857116	      8.93558939	      9.01155614	    -25.57975606	      0.79924563	      9.56693657	    -14.42102291	     -0.67562229	     13.87290939	    -27.04641482	     13.24714057	    -14.61642103	     -4.60767685	      2.81128256	    -10.79970903
      1.79000000	      5.53833523	     -7.29586307	     45.96214178	      1.07914254	      0.88755047	      0.83935481	     27.73569143	      9.27540657	      8.45921289	    -25.90780079	      1.49486365	      9.68205549	    -13.89500860	     -1.17167164	     13.44108902	    -29.13042566	     10.85609701	    -13.71745545	     -4.55837882	      3.55832277	    -10.76200340
      1.80000000	      5.93179729	     -7.50186439	     46.52908963	      1.08649316	      0.88937841	      0.83070775	     26.90147572	      9.46269293	      7.84551255	    -26.00601212	      2.21475017	      9.67929643	    -13.12354009	     -1.59482015	     12.87976307	    -31.43238263	      8.09450843	    -12.68553964	     -4.53481246	      4.16383845	    -10.74965568
      1.81000000	      6.23890356	     -7.65914312	     47.15260518	      1.09346047	      0.89130229	      0.82216534	     26.00373146	      9.51967146	      7.17197149	    -25.90097925	      2.91244265	      9.55321336	    -12.06945233	     -1.97692421	     12.19533631	    -33.96447439	      5.02185233	    -11.61261072	     -4.52517784	      4.64345012	    -10.76625046
      1.82000000	      6.45692410	     -7.77589514	     47.81928901	      1.10004832	      0.89324626	      0.81376350	     25.07636168	      9.46556910	      6.45101481	    -25.64069993	      3.61385559	      9.30894909	    -10.72947608	     -2.33540297	     11.38098672	    -36.70579950	      1.70954988	    -10.55961398	     -4.52627443	      4.99866183	    -10.77505205
      1.83000000	      6.60138370	     -7.87562337	     48.53935766	      1.10624370	      0.89515074	      0.80555522	     24.15519250	      9.34326501	      5.71184049	    -25.26814966	      4.20426837	      8.95953112	     -9.09711354	     -2.70745015	     10.48262649	    -39.64400269	     -1.75572122	     -9.69835592	     -4.53554551	      5.26029559	    -10.80476736
      1.84000000	      6.68650624	     -7.96424855	     49.29639474	      1.11207761	      0.89695957	      0.79755631	     23.26279783	      9.18034749	      4.97158151	    -24.83717571	      4.72617066	      8.51535302	     -7.20486757	     -3.11105313	      9.51781715	    -42.73715567	     -5.24339939	     -9.01725241	     -4.56193740	      5.44437716	    -10.82086502
      1.85000000	      6.74023767	     -8.05195563	     50.07792601	      1.11759807	      0.89863713	      0.78976742	     22.41202665	      9.01623702	      4.24463155	    -24.39575332	      5.18523271	      8.00705008	     -5.10064950	     -3.56948596	      8.52253347	    -45.93329402	     -8.58724995	     -8.50895609	     -4.61549075	      5.58437608	    -10.80253931
      1.86000000	      6.78584833	     -8.14100883	     50.87873660	      1.12282235	      0.90016139	      0.78215150	     21.60542354	      8.87422621	      3.55520499	    -23.98007303	      5.60146802	      7.45275673	     -2.84040264	     -4.07973853	      7.56274088	    -49.17355399	    -11.59272506	     -8.06478124	     -4.70607677	      5.71177755	    -10.73543519
      1.87000000	      6.85508977	     -8.21468953	     51.68476877	      1.12781804	      0.90157387	      0.77466765	     20.80927542	      8.77232356	      2.91437199	    -23.60193510	      5.95907141	      6.91549210	     -0.50779539	     -4.63830091	      6.66181361	    -52.39038466	    -14.04958062	     -7.57920714	     -4.86252101	      5.84436681	    -10.62459564
      1.88000000	      6.94471587	     -8.28578653	     52.48627419	      1.13260665	      0.90283561	      0.76725966	     20.03571926	      8.71436948	      2.33551204	    -23.26912977	      6.37498382	      6.36765083	      1.86722117	     -5.19013693	      5.91956759	    -55.52957237	    -15.77903770	     -6.93377328	     -5.05858127	      5.99371703	    -10.39849710
      1.89000000	      7.08945516	     -8.31288131	     53.27657688	      1.13722766	      0.90405258	      0.75987383	     19.22332769	      8.69798346	      1.80415934	    -22.98037890	      6.71966156	      5.90325518	      4.19842514	     -5.74155869	      5.27200502	    -58.53571034	    -16.67765797	     -6.20623848	     -5.34749320	      6.17092711	    -10.12483684
      1.90000000	      7.24823131	     -8.29764619	     54.04525144	      1.14171167	      0.90520966	      0.75246845	     18.36740524	      8.69453957	      1.37758250	    -22.69001039	      7.15458873	      5.46781049	      6.48419811	     -6.21124864	      4.76937486	    -61.35501028	    -16.79666750	     -5.43624548	     -5.68303390	      6.33684601	     -9.75603645
